# Blender v2.79 (sub 0) OBJ File: 'roomtiles.blend'
# www.blender.org
mtllib room1I.mtl
o RoomTile1I_Plane.011
v -19.799999 0.000000 -8.200000
v -19.799999 0.000000 -15.799999
v -12.200001 0.000000 -15.800000
v -12.200000 0.000000 -8.200001
v -12.200000 0.000000 -12.760000
v -12.200000 0.000000 -11.240000
v -19.799999 0.000000 -11.240000
v -19.799999 0.000000 -12.760000
v -16.760000 0.000000 -8.200000
v -15.240000 0.000000 -8.200000
v -16.760000 0.000000 -8.000000
v -15.240000 0.000000 -8.000000
v -16.760000 0.000000 -15.800000
v -15.240000 0.000000 -15.800000
v -16.760000 0.000000 -16.000000
v -15.240000 0.000000 -16.000000
v -16.760000 0.000000 -12.760000
v -15.240000 0.000000 -12.760000
v -16.760000 0.000000 -11.240000
v -15.240000 0.000000 -11.240000
v -12.200000 2.600000 -11.240000
v -12.200000 2.600000 -8.200001
v -15.240000 2.600000 -8.200000
v -15.240000 2.600000 -8.000000
v -15.240000 2.600000 -15.800000
v -12.200001 2.600000 -15.800000
v -19.799999 2.600000 -12.760000
v -19.799999 2.600000 -15.799999
v -19.799999 2.600000 -8.200000
v -15.240000 2.600000 -16.000000
v -12.200000 2.600000 -12.760000
v -19.799999 2.600000 -11.240000
v -16.760000 2.600000 -8.200000
v -16.760000 2.600000 -8.000000
v -16.760000 2.600000 -15.800000
v -16.760000 2.600000 -16.000000
v -12.200000 3.600000 -11.240000
v -12.200000 3.600000 -8.200001
v -15.240000 3.600000 -8.200000
v -15.240000 3.600000 -15.800000
v -12.200001 3.600000 -15.800000
v -19.799999 3.600000 -12.760000
v -19.799999 3.600000 -15.799999
v -19.799999 3.600000 -8.200000
v -12.200000 3.600000 -12.760000
v -19.799999 3.600000 -11.240000
v -16.760000 3.600000 -8.200000
v -16.760000 3.600000 -15.800000
vn 1.0000 0.0000 0.0000
vn 0.0000 0.0000 -1.0000
vn -1.0000 0.0000 0.0000
vn 0.0000 1.0000 0.0000
vn 0.0000 0.0000 1.0000
vn 0.0000 -1.0000 0.0000
usemtl None
s off
f 8//1 2//1 28//1 27//1
f 9//2 1//2 29//2 33//2
f 3//3 5//3 31//3 26//3
f 19//4 7//4 1//4 9//4
f 13//4 2//4 8//4 17//4
f 17//4 8//4 7//4 19//4
f 5//4 18//4 20//4 6//4
f 18//4 17//4 19//4 20//4
f 3//4 14//4 18//4 5//4
f 14//4 13//4 17//4 18//4
f 14//4 16//4 15//4 13//4
f 6//4 20//4 10//4 4//4
f 20//4 19//4 9//4 10//4
f 14//5 3//5 26//5 25//5
f 10//4 9//4 11//4 12//4
f 33//2 29//2 44//2 47//2
f 22//2 23//2 39//2 38//2
f 21//3 22//3 38//3 37//3
f 1//1 7//1 32//1 29//1
f 16//3 14//3 25//3 30//3
f 13//1 15//1 36//1 35//1
f 2//5 13//5 35//5 28//5
f 6//3 4//3 22//3 21//3
f 10//3 12//3 24//3 23//3
f 4//2 10//2 23//2 22//2
f 11//1 9//1 33//1 34//1
f 25//5 26//5 41//5 40//5
f 28//5 35//5 48//5 43//5
f 26//3 31//3 45//3 41//3
f 29//1 32//1 46//1 44//1
f 27//1 28//1 43//1 42//1
f 40//5 48//5 35//5 25//5
f 25//6 35//6 36//6 30//6
f 45//3 31//3 21//3 37//3
f 6//3 21//3 31//3 5//3
f 23//2 33//2 47//2 39//2
f 24//6 34//6 33//6 23//6
f 27//1 42//1 46//1 32//1
f 7//1 8//1 27//1 32//1
