# Blender v2.79 (sub 0) OBJ File: 'roomtiles.blend'
# www.blender.org
mtllib room1,.mtl
o RoomTile1,_Plane.008
v 11.800000 0.000000 -15.799999
v 11.799999 0.000000 -8.200000
v 4.200000 0.000000 -8.200001
v 4.200000 0.000000 -15.800000
v 4.200000 0.000000 -11.240000
v 4.200000 0.000000 -12.760000
v 11.800000 0.000000 -12.760000
v 11.800000 0.000000 -11.240000
v 8.760000 0.000000 -15.800000
v 7.240000 0.000000 -15.800000
v 8.760000 0.000000 -8.200000
v 7.240000 0.000000 -8.200000
v 8.760000 0.000000 -8.000000
v 7.240000 0.000000 -8.000000
v 8.760000 0.000000 -11.240000
v 7.240000 0.000000 -11.240000
v 8.760000 0.000000 -12.760000
v 7.240000 0.000000 -12.760000
v 4.200000 2.600000 -12.760000
v 4.200000 2.600000 -15.800000
v 7.240000 2.600000 -15.800000
v 7.240000 2.600000 -8.200000
v 4.200000 2.600000 -8.200001
v 11.800000 2.600000 -11.240000
v 11.799999 2.600000 -8.200000
v 11.800000 2.600000 -15.799999
v 7.240000 2.600000 -8.000000
v 4.200000 2.600000 -11.240000
v 11.800000 2.600000 -12.760000
v 8.760000 2.600000 -15.800000
v 8.760000 2.600000 -8.200000
v 8.760000 2.600000 -8.000000
v 4.200000 3.600000 -12.760000
v 4.200000 3.600000 -15.800000
v 7.240000 3.600000 -15.800000
v 7.240000 3.600000 -8.200000
v 4.200000 3.600000 -8.200001
v 11.800000 3.600000 -11.240000
v 11.799999 3.600000 -8.200000
v 11.800000 3.600000 -15.799999
v 4.200000 3.600000 -11.240000
v 11.800000 3.600000 -12.760000
v 8.760000 3.600000 -15.800000
v 8.760000 3.600000 -8.200000
vn -1.0000 0.0000 -0.0000
vn 0.0000 0.0000 1.0000
vn 1.0000 0.0000 0.0000
vn 0.0000 1.0000 0.0000
vn 0.0000 0.0000 -1.0000
vn 0.0000 -1.0000 0.0000
usemtl None
s off
f 8//1 2//1 25//1 24//1
f 9//2 1//2 26//2 30//2
f 3//3 5//3 28//3 23//3
f 17//4 7//4 1//4 9//4
f 11//4 2//4 8//4 15//4
f 15//4 8//4 7//4 17//4
f 5//4 16//4 18//4 6//4
f 16//4 15//4 17//4 18//4
f 3//4 12//4 16//4 5//4
f 12//4 11//4 15//4 16//4
f 12//4 14//4 13//4 11//4
f 6//4 18//4 10//4 4//4
f 18//4 17//4 9//4 10//4
f 12//5 3//5 23//5 22//5
f 30//2 26//2 40//2 43//2
f 20//2 21//2 35//2 34//2
f 19//3 20//3 34//3 33//3
f 1//1 7//1 29//1 26//1
f 14//3 12//3 22//3 27//3
f 11//1 13//1 32//1 31//1
f 2//5 11//5 31//5 25//5
f 6//3 4//3 20//3 19//3
f 4//2 10//2 21//2 20//2
f 22//5 23//5 37//5 36//5
f 25//5 31//5 44//5 39//5
f 23//3 28//3 41//3 37//3
f 26//1 29//1 42//1 40//1
f 24//1 25//1 39//1 38//1
f 36//5 44//5 31//5 22//5
f 22//6 31//6 32//6 27//6
f 41//3 28//3 19//3 33//3
f 6//3 19//3 28//3 5//3
f 21//2 30//2 43//2 35//2
f 9//2 30//2 21//2 10//2
f 24//1 38//1 42//1 29//1
f 7//1 8//1 24//1 29//1
