# Blender v2.79 (sub 0) OBJ File: 'roomtiles.blend'
# www.blender.org
mtllib room1L.mtl
o RoomTile1L_Plane.007
v 4.200000 0.000000 7.800000
v 4.200000 0.000000 0.200000
v 11.800000 0.000000 0.200000
v 11.800000 0.000000 7.800000
v 11.800000 0.000000 3.240000
v 11.800000 0.000000 4.760000
v 4.200000 0.000000 4.760000
v 4.200000 0.000000 3.240000
v 12.000000 0.000000 3.240000
v 12.000000 0.000000 4.760000
v 7.240000 0.000000 7.800000
v 8.760000 0.000000 7.800000
v 7.240000 0.000000 0.200000
v 8.760000 0.000000 0.200000
v 7.240000 0.000000 0.000000
v 8.760000 0.000000 0.000000
v 7.240000 0.000000 3.240000
v 8.760000 0.000000 3.240000
v 7.240000 0.000000 4.760000
v 8.760000 0.000000 4.760000
v 11.800000 2.600000 4.760000
v 11.800000 2.600000 7.800000
v 8.760000 2.600000 7.800000
v 8.760000 2.600000 0.200000
v 11.800000 2.600000 0.200000
v 4.200000 2.600000 3.240000
v 4.200000 2.600000 0.200000
v 4.200000 2.600000 7.800000
v 12.000000 2.600000 4.760000
v 8.760000 2.600000 0.000000
v 11.800000 2.600000 3.240000
v 4.200000 2.600000 4.760000
v 12.000000 2.600000 3.240000
v 7.240000 2.600000 7.800000
v 7.240000 2.600000 0.200000
v 7.240000 2.600000 0.000000
v 11.800000 3.600000 4.760000
v 11.800000 3.600000 7.800000
v 8.760000 3.600000 7.800000
v 8.760000 3.600000 0.200000
v 11.800000 3.600000 0.200000
v 4.200000 3.600000 3.240000
v 4.200000 3.600000 0.200000
v 4.200000 3.600000 7.800000
v 11.800000 3.600000 3.240000
v 4.200000 3.600000 4.760000
v 7.240000 3.600000 7.800000
v 7.240000 3.600000 0.200000
vn 1.0000 0.0000 0.0000
vn 0.0000 0.0000 -1.0000
vn -1.0000 0.0000 0.0000
vn 0.0000 1.0000 0.0000
vn 0.0000 0.0000 1.0000
vn 0.0000 -1.0000 0.0000
usemtl None
s off
f 8//1 2//1 27//1 26//1
f 11//2 1//2 28//2 34//2
f 3//3 5//3 31//3 25//3
f 19//4 7//4 1//4 11//4
f 6//4 10//4 9//4 5//4
f 13//4 2//4 8//4 17//4
f 17//4 8//4 7//4 19//4
f 5//4 18//4 20//4 6//4
f 18//4 17//4 19//4 20//4
f 3//4 14//4 18//4 5//4
f 14//4 13//4 17//4 18//4
f 14//4 16//4 15//4 13//4
f 6//4 20//4 12//4 4//4
f 20//4 19//4 11//4 12//4
f 14//5 3//5 25//5 24//5
f 34//2 28//2 44//2 47//2
f 22//2 23//2 39//2 38//2
f 21//3 22//3 38//3 37//3
f 1//1 7//1 32//1 28//1
f 16//3 14//3 24//3 30//3
f 13//1 15//1 36//1 35//1
f 2//5 13//5 35//5 27//5
f 6//3 4//3 22//3 21//3
f 4//2 12//2 23//2 22//2
f 10//2 6//2 21//2 29//2
f 5//5 9//5 33//5 31//5
f 24//5 25//5 41//5 40//5
f 27//5 35//5 48//5 43//5
f 25//3 31//3 45//3 41//3
f 28//1 32//1 46//1 44//1
f 26//1 27//1 43//1 42//1
f 40//5 48//5 35//5 24//5
f 24//6 35//6 36//6 30//6
f 45//3 31//3 21//3 37//3
f 21//6 31//6 33//6 29//6
f 23//2 34//2 47//2 39//2
f 11//2 34//2 23//2 12//2
f 26//1 42//1 46//1 32//1
f 7//1 8//1 26//1 32//1
