# Blender v2.79 (sub 0) OBJ File: 'roomtiles.blend'
# www.blender.org
mtllib roomStairs.mtl
o RoomTileStairs_Plane.014
v -19.799999 4.000000 -7.800000
v -12.200000 4.000000 -7.799999
v -12.200001 4.000000 -1.200000
v -19.800001 4.000000 -1.200001
v -15.240001 4.000000 -1.200000
v -16.760000 4.000000 -1.200000
v -16.760000 4.000000 -7.800000
v -15.240000 4.000000 -7.800000
v -19.799999 4.000000 -4.760001
v -19.799999 4.000000 -3.240000
v -20.000000 4.000000 -4.760001
v -20.000000 4.000000 -3.240000
v -12.200000 4.000000 -4.759999
v -12.200000 4.000000 -3.239999
v -12.000000 4.000000 -4.759999
v -12.000000 4.000000 -3.239999
v -15.240000 4.000000 -4.760000
v -15.240000 4.000000 -3.240000
v -16.760000 4.000000 -4.760000
v -16.760000 4.000000 -3.240000
v -19.800001 6.600000 -1.200001
v -19.799999 6.600000 -3.240000
v -20.000000 6.600000 -3.240000
v -12.200000 6.600000 -3.239999
v -12.200001 6.600000 -1.200000
v -15.240000 6.600000 -7.800000
v -12.200000 6.600000 -7.799999
v -19.799999 6.600000 -7.800000
v -12.000000 6.600000 -3.239999
v -16.760000 6.600000 -7.800000
v -19.799999 6.600000 -4.760001
v -20.000000 6.600000 -4.760001
v -12.200000 6.600000 -4.759999
v -12.000000 6.600000 -4.759999
v -19.800001 7.600000 -1.200001
v -19.799999 7.600000 -3.240000
v -12.200000 7.600000 -3.239999
v -12.200001 7.600000 -1.200000
v -15.240000 7.600000 -7.800000
v -12.200000 7.600000 -7.799999
v -19.799999 7.600000 -7.800000
v -16.760000 7.600000 -7.800000
v -19.799999 7.600000 -4.760001
v -12.200000 7.600000 -4.759999
v -19.799997 0.000000 7.800000
v -19.799999 0.000000 0.200000
v -12.199999 0.000000 0.199999
v -12.199998 0.000000 7.800000
v -12.199999 0.000000 3.240000
v -12.199999 0.000000 4.760000
v -19.799999 0.000000 4.760000
v -19.799999 0.000000 3.240000
v -16.759998 0.000000 7.800000
v -15.239998 0.000000 7.799999
v -16.759998 0.000000 0.200000
v -15.239999 0.000000 0.200000
v -16.759998 0.000000 3.240000
v -15.239998 0.000000 3.240000
v -16.759998 0.000000 4.760000
v -15.239998 0.000000 4.760000
v -12.199999 2.600000 4.760000
v -12.199998 2.600000 7.800000
v -15.239998 2.600000 7.799999
v -12.199999 2.600000 0.199999
v -19.799999 2.600000 3.240000
v -19.799999 2.600000 0.200000
v -19.799997 2.600000 7.800000
v -12.199999 2.600000 3.240000
v -19.799999 2.600000 4.760000
v -16.759998 2.600000 7.800000
v -12.199999 3.600000 4.760000
v -12.199998 3.600000 7.800000
v -15.239998 3.600000 7.799999
v -12.199999 3.600000 0.199999
v -19.799999 3.600000 3.240000
v -19.799999 3.600000 0.200000
v -19.799997 3.600000 7.800000
v -12.199999 3.600000 3.240000
v -19.799999 3.600000 4.760000
v -16.759998 3.600000 7.800000
v -19.799999 0.000000 -1.199999
v -19.799999 0.000000 -7.800000
v -12.199999 0.000000 -7.800001
v -12.199999 0.000000 -1.200000
v -12.199999 0.000000 -4.760001
v -12.199999 0.000000 -3.240000
v -19.799999 0.000000 -3.239999
v -19.799999 0.000000 -4.760000
v -16.759998 0.000000 -1.200000
v -15.239999 0.000000 -1.200000
v -16.759998 0.000000 -7.800000
v -15.239999 0.000000 -7.800000
v -16.759998 0.000000 -4.760000
v -15.239999 0.000000 -4.760000
v -16.759998 0.000000 -3.240000
v -15.239999 0.000000 -3.240000
v -12.199999 2.600000 -3.240000
v -12.199999 2.600000 -1.200000
v -15.239999 2.600000 -7.800000
v -12.199999 2.600000 -7.800001
v -19.799999 2.600000 -4.760000
v -19.799999 2.600000 -7.800000
v -19.799999 2.600000 -1.199999
v -12.199999 2.600000 -4.760001
v -19.799999 2.600000 -3.239999
v -16.759998 2.600000 -7.800000
v -12.199999 3.600000 -3.240000
v -12.199999 3.600000 -1.200000
v -15.239999 3.600000 -7.800000
v -12.199999 3.600000 -7.800001
v -19.799999 3.600000 -4.760000
v -19.799999 3.600000 -7.800000
v -19.799999 3.600000 -1.199999
v -12.199999 3.600000 -4.760001
v -19.799999 3.600000 -3.239999
v -16.759998 3.600000 -7.800000
v -16.759998 0.000000 8.000000
v -15.239998 0.000000 8.000000
v -16.759998 2.600000 8.000000
v -15.239998 2.600000 8.000000
v -12.199998 4.000000 0.200000
v -12.199999 4.000000 7.800000
v -19.799999 4.000000 7.799999
v -19.799997 4.000000 0.200000
v -19.799999 4.000000 4.759999
v -19.799999 4.000000 3.240000
v -12.199999 4.000000 3.240000
v -12.199999 4.000000 4.760001
v -15.239999 4.000000 7.800000
v -16.759998 4.000000 7.800000
v -19.799999 6.600000 3.240000
v -19.799997 6.600000 0.200000
v -16.759998 6.600000 7.800000
v -19.799999 6.600000 7.799999
v -12.199999 6.600000 4.760001
v -12.199999 6.600000 7.800000
v -12.199998 6.600000 0.200000
v -19.799999 6.600000 4.759999
v -12.199999 6.600000 3.240000
v -15.239999 6.600000 7.800000
v -19.799999 7.600000 3.240000
v -19.799997 7.600000 0.200000
v -16.759998 7.600000 7.800000
v -19.799999 7.600000 7.799999
v -12.199999 7.600000 4.760001
v -12.199999 7.600000 7.800000
v -12.199998 7.600000 0.200000
v -19.799999 7.600000 4.759999
v -12.199999 7.600000 3.240000
v -15.239999 7.600000 7.800000
v -15.240001 3.600000 -1.200000
v -16.760000 3.600000 -1.200000
v -15.239998 3.600000 -4.760000
v -16.758842 3.600000 -4.760000
v -15.240000 3.600000 -3.240000
v -16.758266 3.600000 -3.240000
v -16.946463 -0.000528 -0.891955
v -16.946463 3.999472 -0.891955
v -16.946463 -0.000528 -1.191955
v -16.946463 3.999472 -1.191955
v -14.946464 -0.000528 -0.891954
v -14.946464 3.999472 -0.891954
v -14.946463 -0.000528 -1.191954
v -14.946463 3.999472 -1.191954
v -16.946463 0.366139 -0.891955
v -16.946463 0.699472 -0.891955
v -16.946463 1.032805 -0.891955
v -16.946463 1.366138 -0.891955
v -16.946463 1.699472 -0.891955
v -16.946463 2.032805 -0.891955
v -16.946463 2.366139 -0.891955
v -16.946463 2.699472 -0.891955
v -16.946463 3.032805 -0.891955
v -16.946463 3.366139 -0.891955
v -16.946463 3.699472 -0.891955
v -16.946463 3.599472 -1.191955
v -16.946463 3.366139 -1.191955
v -16.946463 3.032805 -1.191955
v -16.946463 2.699472 -1.191955
v -16.946463 2.366139 -1.191955
v -16.946463 2.032805 -1.191955
v -16.946463 1.699472 -1.191955
v -16.946463 1.366139 -1.191955
v -16.946463 1.032805 -1.191955
v -16.946463 0.699472 -1.191955
v -16.946463 0.366139 -1.191955
v -14.946463 3.599472 -1.191954
v -14.946463 3.366139 -1.191954
v -14.946463 3.032805 -1.191954
v -14.946463 2.699472 -1.191954
v -14.946463 2.366139 -1.191954
v -14.946463 2.032805 -1.191954
v -14.946463 1.699472 -1.191954
v -14.946463 1.366139 -1.191954
v -14.946463 1.032805 -1.191954
v -14.946463 0.699472 -1.191954
v -14.946463 0.366139 -1.191954
v -14.946464 3.699472 -0.891954
v -14.946464 3.366139 -0.891954
v -14.946464 3.032805 -0.891954
v -14.946464 2.699472 -0.891954
v -14.946464 2.366139 -0.891954
v -14.946464 2.032805 -0.891954
v -14.946464 1.699472 -0.891954
v -14.946464 1.366139 -0.891954
v -14.946464 1.032805 -0.891954
v -14.946464 0.699472 -0.891954
v -14.946464 0.366139 -0.891954
v -14.946464 0.366139 -0.591954
v -14.946464 -0.000528 -0.591954
v -16.946463 -0.000528 -0.591955
v -16.946463 0.366139 -0.591955
v -16.946463 0.699472 -0.591955
v -16.946463 1.032805 -0.591955
v -16.946463 1.366138 -0.591955
v -16.946463 1.699472 -0.591955
v -16.946463 2.032805 -0.591955
v -16.946463 2.366139 -0.591955
v -16.946463 2.699472 -0.591955
v -16.946463 3.032805 -0.591955
v -16.946463 3.366139 -0.591955
v -16.946463 3.699472 -0.591955
v -14.946464 3.699472 -0.591954
v -14.946464 3.366139 -0.591954
v -14.946464 3.032805 -0.591954
v -14.946464 2.699472 -0.591954
v -14.946464 2.366139 -0.591954
v -14.946464 2.032805 -0.591954
v -14.946464 1.699472 -0.591954
v -14.946464 1.366139 -0.591954
v -14.946464 1.032805 -0.591954
v -14.946464 0.699472 -0.591954
v -14.946464 0.366139 -0.291955
v -14.946464 -0.000528 -0.291955
v -16.946463 -0.000528 -0.291955
v -16.946463 0.366139 -0.291955
v -16.946463 0.699472 -0.291955
v -16.946463 1.032805 -0.291955
v -16.946463 1.366138 -0.291955
v -16.946463 1.699472 -0.291955
v -16.946463 2.032805 -0.291955
v -16.946463 2.366139 -0.291955
v -16.946463 2.699472 -0.291955
v -16.946463 3.032805 -0.291955
v -16.946463 3.366139 -0.291955
v -14.946464 3.366139 -0.291955
v -14.946464 3.032805 -0.291955
v -14.946464 2.699472 -0.291955
v -14.946464 2.366139 -0.291955
v -14.946464 2.032805 -0.291955
v -14.946464 1.699472 -0.291955
v -14.946464 1.366139 -0.291955
v -14.946464 1.032805 -0.291955
v -14.946464 0.699472 -0.291955
v -14.946464 0.366139 0.008045
v -14.946464 -0.000528 0.008045
v -16.946463 -0.000528 0.008045
v -16.946463 0.366139 0.008045
v -16.946463 0.699472 0.008045
v -16.946463 1.032805 0.008045
v -16.946463 1.366138 0.008045
v -16.946463 1.699472 0.008045
v -16.946463 2.032805 0.008045
v -16.946463 2.366139 0.008045
v -16.946463 2.699472 0.008045
v -16.946463 3.032805 0.008045
v -14.946464 3.032805 0.008045
v -14.946464 2.699472 0.008045
v -14.946464 2.366139 0.008045
v -14.946464 2.032805 0.008045
v -14.946464 1.699472 0.008045
v -14.946464 1.366139 0.008045
v -14.946464 1.032805 0.008045
v -14.946464 0.699472 0.008045
v -14.946464 0.366139 0.308045
v -14.946464 -0.000528 0.308045
v -16.946463 -0.000528 0.308045
v -16.946463 0.366139 0.308045
v -16.946463 0.699472 0.308045
v -16.946463 1.032805 0.308045
v -16.946463 1.366138 0.308045
v -16.946463 1.699472 0.308045
v -16.946463 2.032805 0.308045
v -16.946463 2.366139 0.308045
v -16.946463 2.699472 0.308045
v -14.946464 2.699472 0.308045
v -14.946464 2.366139 0.308045
v -14.946464 2.032805 0.308045
v -14.946464 1.699472 0.308045
v -14.946464 1.366139 0.308045
v -14.946464 1.032805 0.308045
v -14.946464 0.699472 0.308045
v -14.946464 0.366139 0.608046
v -14.946464 -0.000528 0.608046
v -16.946465 -0.000528 0.608046
v -16.946465 0.366139 0.608046
v -16.946465 0.699472 0.608046
v -16.946465 1.032805 0.608046
v -16.946465 1.366138 0.608046
v -16.946465 1.699472 0.608046
v -16.946465 2.032805 0.608046
v -16.946465 2.366139 0.608046
v -14.946464 2.366139 0.608046
v -14.946464 2.032805 0.608046
v -14.946464 1.699472 0.608046
v -14.946464 1.366139 0.608046
v -14.946464 1.032805 0.608046
v -14.946464 0.699472 0.608046
v -14.946464 0.366139 0.908046
v -14.946464 -0.000528 0.908046
v -16.946465 -0.000528 0.908046
v -16.946465 0.366139 0.908046
v -16.946465 0.699472 0.908046
v -16.946465 1.032805 0.908046
v -16.946465 1.366138 0.908046
v -16.946465 1.699472 0.908046
v -16.946465 2.032805 0.908046
v -14.946464 2.032805 0.908046
v -14.946464 1.699472 0.908046
v -14.946464 1.366139 0.908046
v -14.946464 1.032805 0.908046
v -14.946464 0.699472 0.908046
v -14.946464 0.366139 1.208046
v -14.946464 -0.000528 1.208046
v -16.946465 -0.000528 1.208046
v -16.946465 0.366139 1.208046
v -16.946465 0.699472 1.208046
v -16.946465 1.032805 1.208046
v -16.946465 1.366138 1.208046
v -16.946465 1.699472 1.208046
v -14.946464 1.699472 1.208046
v -14.946464 1.366139 1.208046
v -14.946464 1.032805 1.208046
v -14.946464 0.699472 1.208046
v -14.946464 0.366139 1.208046
v -14.946464 -0.000528 1.208046
v -16.946465 -0.000528 1.208046
v -16.946465 0.366139 1.208046
v -16.946465 0.699472 1.208046
v -16.946465 1.032805 1.208046
v -16.946465 1.366138 1.208046
v -16.946465 1.699472 1.208046
v -14.946464 1.699472 1.208046
v -14.946464 1.366139 1.208046
v -14.946464 1.032805 1.208046
v -14.946464 0.699472 1.208046
v -14.946464 0.366139 1.508046
v -14.946464 -0.000528 1.508046
v -16.946465 -0.000528 1.508046
v -16.946465 0.366139 1.508046
v -16.946465 0.699472 1.508046
v -16.946465 1.032805 1.508046
v -16.946465 1.366138 1.508046
v -14.946464 1.366139 1.508046
v -14.946464 1.032805 1.508046
v -14.946464 0.699472 1.508046
v -14.946464 0.366139 1.808046
v -14.946464 -0.000528 1.808046
v -16.946465 -0.000528 1.808046
v -16.946465 0.366139 1.808046
v -16.946465 0.699472 1.808046
v -16.946465 1.032805 1.808046
v -14.946464 1.032805 1.808046
v -14.946464 0.699472 1.808046
v -14.946464 0.366139 1.808046
v -14.946464 -0.000528 1.808046
v -16.946465 -0.000528 1.808046
v -16.946465 0.366139 1.808046
v -16.946465 0.699472 1.808046
v -14.946464 0.699472 1.808046
v -14.946464 0.366139 2.108047
v -14.946464 -0.000528 2.108047
v -16.946465 -0.000528 2.108047
v -16.946465 0.366139 2.108047
v -16.946465 0.699472 2.108047
v -14.946464 0.699472 2.108047
v -14.946464 0.366139 2.408047
v -14.946464 -0.000528 2.408047
v -16.946465 -0.000528 2.408047
v -16.946465 0.366139 2.408047
v -16.946463 0.366139 -3.191955
v -16.946463 -0.000528 -3.191955
v -14.946463 -0.000528 -3.191954
v -14.946463 0.366139 -3.191954
v -16.946463 3.599472 -3.191955
v -16.946463 3.366139 -3.191955
v -16.946463 3.032805 -3.191955
v -16.946463 2.699472 -3.191955
v -16.946463 2.366139 -3.191955
v -16.946463 2.032805 -3.191955
v -16.946463 1.699472 -3.191955
v -16.946463 1.366139 -3.191955
v -16.946463 1.032805 -3.191955
v -16.946463 0.699472 -3.191955
v -14.946463 3.599472 -3.191954
v -14.946463 3.366139 -3.191954
v -14.946463 3.032805 -3.191954
v -14.946463 2.699472 -3.191954
v -14.946463 2.366139 -3.191954
v -14.946463 2.032805 -3.191954
v -14.946463 1.699472 -3.191954
v -14.946463 1.366139 -3.191954
v -14.946463 1.032805 -3.191954
v -14.946463 0.699472 -3.191954
vn -0.0000 0.0000 1.0000
vn 1.0000 0.0000 0.0000
vn 0.0000 1.0000 0.0000
vn -1.0000 0.0000 -0.0000
vn 0.0000 0.0000 -1.0000
vn 0.0000 -1.0000 0.0000
usemtl None
s off
f 8//1 2//1 27//1 26//1
f 9//2 1//2 28//2 31//2
f 19//3 7//3 1//3 9//3
f 13//3 2//3 8//3 17//3
f 17//3 8//3 7//3 19//3
f 5//3 18//3 20//3 6//3
f 18//3 17//3 19//3 20//3
f 3//3 14//3 18//3 5//3
f 14//3 13//3 17//3 18//3
f 14//3 16//3 15//3 13//3
f 6//3 20//3 10//3 4//3
f 20//3 19//3 9//3 10//3
f 14//4 3//4 25//4 24//4
f 10//3 9//3 11//3 12//3
f 31//2 28//2 41//2 43//2
f 21//2 22//2 36//2 35//2
f 1//1 7//1 30//1 28//1
f 16//5 14//5 24//5 29//5
f 13//1 15//1 34//1 33//1
f 2//4 13//4 33//4 27//4
f 10//5 12//5 23//5 22//5
f 4//2 10//2 22//2 21//2
f 11//1 9//1 31//1 32//1
f 24//4 25//4 38//4 37//4
f 27//4 33//4 44//4 40//4
f 28//1 30//1 42//1 41//1
f 26//1 27//1 40//1 39//1
f 37//4 44//4 33//4 24//4
f 24//6 33//6 34//6 29//6
f 22//2 31//2 43//2 36//2
f 23//6 32//6 31//6 22//6
f 26//1 39//1 42//1 30//1
f 7//1 8//1 26//1 30//1
f 52//2 46//2 66//2 65//2
f 53//5 45//5 67//5 70//5
f 47//4 49//4 68//4 64//4
f 59//3 51//3 45//3 53//3
f 55//3 46//3 52//3 57//3
f 57//3 52//3 51//3 59//3
f 51//2 52//2 65//2 69//2
f 49//3 58//3 60//3 50//3
f 58//3 57//3 59//3 60//3
f 47//3 56//3 58//3 49//3
f 56//3 55//3 57//3 58//3
f 55//3 89//3 81//3 46//3
f 50//3 60//3 54//3 48//3
f 60//3 59//3 53//3 54//3
f 70//5 67//5 77//5 80//5
f 62//5 63//5 73//5 72//5
f 61//4 62//4 72//4 71//4
f 45//2 51//2 69//2 67//2
f 47//3 84//3 90//3 56//3
f 50//4 48//4 62//4 61//4
f 48//5 54//5 63//5 62//5
f 92//1 99//1 106//1 91//1
f 64//4 68//4 78//4 74//4
f 67//2 69//2 79//2 77//2
f 65//2 66//2 76//2 75//2
f 64//4 98//4 84//4 47//4
f 78//4 68//4 61//4 71//4
f 63//5 70//5 80//5 73//5
f 63//4 54//4 118//4 120//4
f 65//2 75//2 79//2 69//2
f 50//4 61//4 68//4 49//4
f 88//2 82//2 102//2 101//2
f 83//4 85//4 104//4 100//4
f 95//3 87//3 81//3 89//3
f 91//3 82//3 88//3 93//3
f 93//3 88//3 87//3 95//3
f 85//3 94//3 96//3 86//3
f 94//3 93//3 95//3 96//3
f 83//3 92//3 94//3 85//3
f 92//3 91//3 93//3 94//3
f 86//3 96//3 90//3 84//3
f 96//3 95//3 89//3 90//3
f 92//1 83//1 100//1 99//1
f 76//2 66//2 103//2 113//2
f 97//4 98//4 108//4 107//4
f 81//2 87//2 105//2 103//2
f 82//1 91//1 106//1 102//1
f 86//4 84//4 98//4 97//4
f 66//2 46//2 81//2 103//2
f 74//4 108//4 98//4 64//4
f 87//2 88//2 101//2 105//2
f 99//1 100//1 110//1 109//1
f 102//1 106//1 116//1 112//1
f 100//4 104//4 114//4 110//4
f 103//2 105//2 115//2 113//2
f 101//2 102//2 112//2 111//2
f 109//1 116//1 106//1 99//1
f 114//4 104//4 97//4 107//4
f 86//4 97//4 104//4 85//4
f 56//3 90//3 89//3 55//3
f 101//2 111//2 115//2 105//2
f 70//6 63//6 120//6 119//6
f 54//3 53//3 117//3 118//3
f 53//2 70//2 119//2 117//2
f 128//4 122//4 136//4 135//4
f 123//2 125//2 138//2 134//2
f 73//5 129//5 122//5 72//5
f 130//5 123//5 134//5 133//5
f 131//2 132//2 142//2 141//2
f 121//4 127//4 139//4 137//4
f 73//5 80//5 130//5 129//5
f 77//5 123//5 130//5 80//5
f 122//5 129//5 140//5 136//5
f 126//2 124//2 132//2 131//2
f 133//5 134//5 144//5 143//5
f 136//5 140//5 150//5 146//5
f 134//2 138//2 148//2 144//2
f 137//4 139//4 149//4 147//4
f 135//4 136//4 146//4 145//4
f 143//5 150//5 140//5 133//5
f 130//5 133//5 140//5 129//5
f 148//2 138//2 131//2 141//2
f 126//2 131//2 138//2 125//2
f 135//4 145//4 149//4 139//4
f 127//4 128//4 135//4 139//4
f 72//4 122//4 128//4 71//4
f 71//4 128//4 127//4 78//4
f 78//4 127//4 121//4 74//4
f 25//4 3//4 121//4 137//4
f 74//4 121//4 3//4 108//4
f 21//2 132//2 124//2 4//2
f 76//2 124//2 126//2 75//2
f 76//2 113//2 4//2 124//2
f 79//2 125//2 123//2 77//2
f 75//2 126//2 125//2 79//2
f 35//2 142//2 132//2 21//2
f 38//4 25//4 137//4 147//4
f 4//1 113//1 152//1 6//1
f 116//6 109//6 153//6 154//6
f 6//1 152//1 151//1 5//1
f 5//1 151//1 108//1 3//1
f 107//6 155//6 153//6 114//6
f 111//6 112//6 116//6 154//6
f 153//6 155//6 156//6 154//6
f 154//6 156//6 115//6 111//6
f 156//6 152//6 113//6 115//6
f 109//6 110//6 114//6 153//6
f 107//6 108//6 151//6 155//6
f 152//6 156//6 155//6 151//6
f 175//4 158//4 160//4 176//4
f 176//5 160//5 164//5 187//5
f 187//2 164//2 162//2 198//2
f 198//1 162//1 158//1 175//1
f 159//6 163//6 161//6 157//6
f 164//3 160//3 158//3 162//3
f 175//4 174//4 221//4 222//4
f 198//3 175//3 222//3 223//3
f 167//4 166//4 213//4 214//4
f 204//2 203//2 228//2 229//2
f 174//4 173//4 220//4 221//4
f 166//4 165//4 212//4 213//4
f 203//2 202//2 227//2 228//2
f 173//4 172//4 219//4 220//4
f 165//4 157//4 211//4 212//4
f 202//2 201//2 226//2 227//2
f 172//4 171//4 218//4 219//4
f 163//2 197//2 208//2 161//2
f 197//2 196//2 207//2 208//2
f 196//2 195//2 206//2 207//2
f 195//2 194//2 205//2 206//2
f 194//2 193//2 204//2 205//2
f 193//2 192//2 203//2 204//2
f 192//2 191//2 202//2 203//2
f 191//2 190//2 201//2 202//2
f 190//2 189//2 200//2 201//2
f 189//2 188//2 199//2 200//2
f 188//2 187//2 198//2 199//2
f 176//3 187//3 395//3 385//3
f 188//2 189//2 397//2 396//2
f 197//2 163//2 383//2 384//2
f 195//2 196//2 404//2 403//2
f 181//4 180//4 389//4 390//4
f 187//2 188//2 396//2 395//2
f 194//2 195//2 403//2 402//2
f 180//4 179//4 388//4 389//4
f 163//6 159//6 382//6 383//6
f 193//2 194//2 402//2 401//2
f 179//4 178//4 387//4 388//4
f 157//4 165//4 186//4 159//4
f 165//4 166//4 185//4 186//4
f 166//4 167//4 184//4 185//4
f 167//4 168//4 183//4 184//4
f 168//4 169//4 182//4 183//4
f 169//4 170//4 181//4 182//4
f 170//4 171//4 180//4 181//4
f 171//4 172//4 179//4 180//4
f 172//4 173//4 178//4 179//4
f 173//4 174//4 177//4 178//4
f 174//4 175//4 176//4 177//4
f 220//4 219//4 243//4 244//4
f 224//3 221//3 245//3 246//3
f 228//2 227//2 249//2 250//2
f 212//4 211//4 235//4 236//4
f 219//4 218//4 242//4 243//4
f 227//2 226//2 248//2 249//2
f 211//6 210//6 234//6 235//6
f 218//4 217//4 241//4 242//4
f 226//2 225//2 247//2 248//2
f 210//2 209//2 233//2 234//2
f 224//1 223//1 222//1 221//1
f 205//2 204//2 229//2 230//2
f 168//4 167//4 214//4 215//4
f 206//2 205//2 230//2 231//2
f 169//4 168//4 215//4 216//4
f 199//2 198//2 223//2 224//2
f 161//2 208//2 209//2 210//2
f 207//2 206//2 231//2 232//2
f 170//4 169//4 216//4 217//4
f 200//2 199//2 224//2 225//2
f 157//6 161//6 210//6 211//6
f 208//2 207//2 232//2 209//2
f 171//4 170//4 217//4 218//4
f 201//2 200//2 225//2 226//2
f 241//4 240//4 262//4 263//4
f 247//3 244//3 266//3 267//3
f 249//2 248//2 268//2 269//2
f 240//4 239//4 261//4 262//4
f 248//2 247//2 267//2 268//2
f 233//2 254//2 274//2 255//2
f 239//4 238//4 260//4 261//4
f 254//2 253//2 273//2 274//2
f 238//4 237//4 259//4 260//4
f 247//1 246//1 245//1 244//1
f 213//4 212//4 236//4 237//4
f 229//2 228//2 250//2 251//2
f 221//4 220//4 244//4 245//4
f 214//4 213//4 237//4 238//4
f 230//2 229//2 251//2 252//2
f 215//4 214//4 238//4 239//4
f 231//2 230//2 252//2 253//2
f 216//4 215//4 239//4 240//4
f 232//2 231//2 253//2 254//2
f 225//2 224//2 246//2 247//2
f 217//4 216//4 240//4 241//4
f 209//2 232//2 254//2 233//2
f 272//2 271//2 289//2 290//2
f 256//2 255//2 275//2 276//2
f 263//4 262//4 282//4 283//4
f 271//2 270//2 288//2 289//2
f 262//4 261//4 281//4 282//4
f 270//2 269//2 287//2 288//2
f 261//4 260//4 280//4 281//4
f 269//2 268//2 286//2 287//2
f 268//1 267//1 266//1 265//1
f 234//2 233//2 255//2 256//2
f 250//2 249//2 269//2 270//2
f 242//4 241//4 263//4 264//4
f 235//6 234//6 256//6 257//6
f 251//2 250//2 270//2 271//2
f 243//4 242//4 264//4 265//4
f 236//4 235//4 257//4 258//4
f 252//2 251//2 271//2 272//2
f 244//4 243//4 265//4 266//4
f 237//4 236//4 258//4 259//4
f 253//2 252//2 272//2 273//2
f 281//4 280//4 298//4 299//4
f 289//2 288//2 304//2 305//2
f 280//4 279//4 297//4 298//4
f 288//2 287//2 303//2 304//2
f 279//4 278//4 296//4 297//4
f 278//4 277//4 295//4 296//4
f 275//2 292//2 308//2 293//2
f 287//1 286//1 285//1 284//1
f 264//4 263//4 283//4 284//4
f 257//6 256//6 276//6 277//6
f 273//2 272//2 290//2 291//2
f 265//4 264//4 284//4 285//4
f 258//4 257//4 277//4 278//4
f 274//2 273//2 291//2 292//2
f 259//4 258//4 278//4 279//4
f 255//2 274//2 292//2 275//2
f 268//3 265//3 285//3 286//3
f 260//4 259//4 279//4 280//4
f 299//4 298//4 314//4 315//4
f 307//2 306//2 320//2 321//2
f 298//4 297//4 313//4 314//4
f 306//2 305//2 319//2 320//2
f 297//4 296//4 312//4 313//4
f 305//2 304//2 318//2 319//2
f 304//1 303//1 302//1 301//1
f 290//2 289//2 305//2 306//2
f 282//4 281//4 299//4 300//4
f 291//2 290//2 306//2 307//2
f 283//4 282//4 300//4 301//4
f 276//2 275//2 293//2 294//2
f 292//2 291//2 307//2 308//2
f 284//4 283//4 301//4 302//4
f 287//3 284//3 302//3 303//3
f 277//6 276//6 294//6 295//6
f 309//2 322//2 334//2 323//2
f 315//4 314//4 328//4 329//4
f 311//6 310//6 324//6 325//6
f 322//2 321//2 333//2 334//2
f 314//4 313//4 327//4 328//4
f 319//1 318//1 317//1 316//1
f 304//3 301//3 317//3 318//3
f 308//2 307//2 321//2 322//2
f 300//4 299//4 315//4 316//4
f 293//2 308//2 322//2 309//2
f 301//4 300//4 316//4 317//4
f 294//2 293//2 309//2 310//2
f 295//6 294//6 310//6 311//6
f 296//4 295//4 311//4 312//4
f 325//1 324//1 336//1 337//1
f 328//1 327//1 339//1 340//1
f 332//1 331//1 343//1 344//1
f 324//1 323//1 335//1 336//1
f 323//1 334//1 346//1 335//1
f 312//4 311//4 325//4 326//4
f 320//2 319//2 331//2 332//2
f 316//4 315//4 329//4 330//4
f 313//4 312//4 326//4 327//4
f 321//2 320//2 332//2 333//2
f 319//3 316//3 330//3 331//3
f 310//2 309//2 323//2 324//2
f 344//3 341//3 353//3 354//3
f 336//2 335//2 347//2 348//2
f 335//2 346//2 356//2 347//2
f 339//4 338//4 350//4 351//4
f 344//1 343//1 342//1 341//1
f 333//1 332//1 344//1 345//1
f 331//1 330//1 342//1 343//1
f 329//1 328//1 340//1 341//1
f 326//1 325//1 337//1 338//1
f 334//1 333//1 345//1 346//1
f 330//1 329//1 341//1 342//1
f 327//1 326//1 338//1 339//1
f 355//3 352//3 362//3 363//3
f 350//4 349//4 359//4 360//4
f 352//4 351//4 361//4 362//4
f 355//1 354//1 353//1 352//1
f 340//4 339//4 351//4 352//4
f 337//6 336//6 348//6 349//6
f 345//2 344//2 354//2 355//2
f 341//4 340//4 352//4 353//4
f 338//4 337//4 349//4 350//4
f 346//2 345//2 355//2 356//2
f 360//1 359//1 367//1 368//1
f 357//1 364//1 370//1 365//1
f 364//1 363//1 362//1 361//1
f 348//2 347//2 357//2 358//2
f 356//2 355//2 363//2 364//2
f 351//4 350//4 360//4 361//4
f 349//6 348//6 358//6 359//6
f 347//2 356//2 364//2 357//2
f 370//3 369//3 375//3 376//3
f 367//6 366//6 372//6 373//6
f 358//1 357//1 365//1 366//1
f 361//1 360//1 368//1 369//1
f 359//1 358//1 366//1 367//1
f 364//1 361//1 369//1 370//1
f 372//2 371//2 377//2 378//2
f 371//1 376//1 375//1 374//1
f 365//2 370//2 376//2 371//2
f 368//4 367//4 373//4 374//4
f 366//2 365//2 371//2 372//2
f 369//4 368//4 374//4 375//4
f 378//1 377//1 380//1 379//1
f 371//3 374//3 380//3 377//3
f 373//6 372//6 378//6 379//6
f 374//4 373//4 379//4 380//4
f 382//5 381//5 384//5 383//5
f 381//5 394//5 404//5 384//5
f 394//5 393//5 403//5 404//5
f 393//5 392//5 402//5 403//5
f 392//5 391//5 401//5 402//5
f 391//5 390//5 400//5 401//5
f 390//5 389//5 399//5 400//5
f 389//5 388//5 398//5 399//5
f 388//5 387//5 397//5 398//5
f 387//5 386//5 396//5 397//5
f 386//5 385//5 395//5 396//5
f 182//4 181//4 390//4 391//4
f 196//2 197//2 384//2 404//2
f 189//2 190//2 398//2 397//2
f 183//4 182//4 391//4 392//4
f 190//2 191//2 399//2 398//2
f 184//4 183//4 392//4 393//4
f 177//4 176//4 385//4 386//4
f 191//2 192//2 400//2 399//2
f 185//4 184//4 393//4 394//4
f 178//4 177//4 386//4 387//4
f 192//2 193//2 401//2 400//2
f 159//4 186//4 381//4 382//4
f 186//4 185//4 394//4 381//4
