# Blender v2.79 (sub 0) OBJ File: 'roomtiles.blend'
# www.blender.org
mtllib room1T.mtl
o RoomTile1T_Plane.009
v -11.799999 0.000000 0.200000
v -4.200000 0.000000 0.200001
v -4.200001 0.000000 7.800000
v -11.800000 0.000000 7.799999
v -7.240001 0.000000 7.800000
v -8.760000 0.000000 7.800000
v -8.759999 0.000000 0.200000
v -7.239999 0.000000 0.200000
v -7.240001 0.000000 8.000000
v -8.760000 0.000000 8.000000
v -11.800000 0.000000 3.239999
v -11.800000 0.000000 4.759999
v -12.000000 0.000000 3.239999
v -12.000000 0.000000 4.759999
v -4.200000 0.000000 3.240000
v -4.200000 0.000000 4.760001
v -4.000000 0.000000 3.240000
v -4.000000 0.000000 4.760001
v -7.240000 0.000000 3.240000
v -7.240000 0.000000 4.760000
v -8.760000 0.000000 3.240000
v -8.760000 0.000000 4.760000
v -8.760000 2.600000 7.800000
v -11.800000 2.600000 7.799999
v -11.800000 2.600000 4.759999
v -12.000000 2.600000 4.759999
v -4.200000 2.600000 4.760001
v -4.200001 2.600000 7.800000
v -7.239999 2.600000 0.200000
v -4.200000 2.600000 0.200001
v -11.799999 2.600000 0.200000
v -8.760000 2.600000 8.000000
v -4.000000 2.600000 4.760001
v -7.240001 2.600000 7.800000
v -8.759999 2.600000 0.200000
v -7.240001 2.600000 8.000000
v -11.800000 2.600000 3.239999
v -12.000000 2.600000 3.239999
v -4.200000 2.600000 3.240000
v -4.000000 2.600000 3.240000
v -8.760000 3.600000 7.800000
v -11.800000 3.600000 7.799999
v -11.800000 3.600000 4.759999
v -4.200000 3.600000 4.760001
v -4.200001 3.600000 7.800000
v -7.239999 3.600000 0.200000
v -4.200000 3.600000 0.200001
v -11.799999 3.600000 0.200000
v -7.240001 3.600000 7.800000
v -8.759999 3.600000 0.200000
v -11.800000 3.600000 3.239999
v -4.200000 3.600000 3.240000
vn -0.0000 0.0000 1.0000
vn 1.0000 0.0000 0.0000
vn 0.0000 0.0000 -1.0000
vn 0.0000 1.0000 0.0000
vn -1.0000 0.0000 -0.0000
vn 0.0000 -1.0000 0.0000
usemtl None
s off
f 8//1 2//1 30//1 29//1
f 11//2 1//2 31//2 37//2
f 3//3 5//3 34//3 28//3
f 21//4 7//4 1//4 11//4
f 6//4 10//4 9//4 5//4
f 15//4 2//4 8//4 19//4
f 19//4 8//4 7//4 21//4
f 5//4 20//4 22//4 6//4
f 20//4 19//4 21//4 22//4
f 3//4 16//4 20//4 5//4
f 16//4 15//4 19//4 20//4
f 16//4 18//4 17//4 15//4
f 6//4 22//4 12//4 4//4
f 22//4 21//4 11//4 12//4
f 16//5 3//5 28//5 27//5
f 12//4 11//4 13//4 14//4
f 37//2 31//2 48//2 51//2
f 24//2 25//2 43//2 42//2
f 23//3 24//3 42//3 41//3
f 1//1 7//1 35//1 31//1
f 18//3 16//3 27//3 33//3
f 15//1 17//1 40//1 39//1
f 2//5 15//5 39//5 30//5
f 6//3 4//3 24//3 23//3
f 12//3 14//3 26//3 25//3
f 4//2 12//2 25//2 24//2
f 10//2 6//2 23//2 32//2
f 13//1 11//1 37//1 38//1
f 5//5 9//5 36//5 34//5
f 27//5 28//5 45//5 44//5
f 30//5 39//5 52//5 47//5
f 28//3 34//3 49//3 45//3
f 31//1 35//1 50//1 48//1
f 29//1 30//1 47//1 46//1
f 44//5 52//5 39//5 27//5
f 27//6 39//6 40//6 33//6
f 49//3 34//3 23//3 41//3
f 23//6 34//6 36//6 32//6
f 25//2 37//2 51//2 43//2
f 26//6 38//6 37//6 25//6
f 29//1 46//1 50//1 35//1
f 7//1 8//1 29//1 35//1
