# Blender v2.79 (sub 0) OBJ File: 'roomtiles.blend'
# www.blender.org
mtllib room1+.mtl
o RoomTile1+_Plane
v 3.800000 0.000000 7.800000
v -3.800000 0.000000 7.800000
v -3.800000 0.000000 0.200000
v 3.800000 0.000000 0.200000
v -0.760000 0.000000 0.200000
v 0.760000 0.000000 0.200000
v 0.760000 0.000000 7.800000
v -0.760000 0.000000 7.800000
v 0.760000 0.000000 8.000000
v -0.760000 0.000000 8.000000
v -0.760000 0.000000 0.000000
v 0.760000 0.000000 0.000000
v 3.800000 0.000000 4.760000
v 3.800000 0.000000 3.240000
v 4.000000 0.000000 4.760000
v 4.000000 0.000000 3.240000
v -3.800000 0.000000 4.760000
v -3.800000 0.000000 3.240000
v -4.000000 0.000000 4.760000
v -4.000000 0.000000 3.240000
v -0.760000 0.000000 4.760000
v -0.760000 0.000000 3.240000
v 0.760000 0.000000 4.760000
v 0.760000 0.000000 3.240000
v 0.760000 2.600000 0.200000
v 3.800000 2.600000 0.200000
v 3.800000 2.600000 3.240000
v 4.000000 2.600000 3.240000
v -3.800000 2.600000 3.240000
v -3.800000 2.600000 0.200000
v -0.760000 2.600000 7.800000
v -3.800000 2.600000 7.800000
v -0.760000 2.600000 8.000000
v 3.800000 2.600000 7.800000
v 0.760000 2.600000 0.000000
v -4.000000 2.600000 3.240000
v -0.760000 2.600000 0.200000
v 0.760000 2.600000 7.800000
v 0.760000 2.600000 8.000000
v -0.760000 2.600000 0.000000
v 3.800000 2.600000 4.760000
v 4.000000 2.600000 4.760000
v -3.800000 2.600000 4.760000
v -4.000000 2.600000 4.760000
v 0.760000 3.600000 0.200000
v 3.800000 3.600000 0.200000
v 3.800000 3.600000 3.240000
v -3.800000 3.600000 3.240000
v -3.800000 3.600000 0.200000
v -0.760000 3.600000 7.800000
v -3.800000 3.600000 7.800000
v 3.800000 3.600000 7.800000
v -0.760000 3.600000 0.200000
v 0.760000 3.600000 7.800000
v 3.800000 3.600000 4.760000
v -3.800000 3.600000 4.760000
vn 0.0000 0.0000 -1.0000
vn -1.0000 0.0000 0.0000
vn 0.0000 0.0000 1.0000
vn 0.0000 1.0000 0.0000
vn 1.0000 0.0000 0.0000
vn 0.0000 -1.0000 0.0000
usemtl None
s off
f 8//1 2//1 32//1 31//1
f 13//2 1//2 34//2 41//2
f 3//3 5//3 37//3 30//3
f 7//2 9//2 39//2 38//2
f 23//4 7//4 1//4 13//4
f 10//5 8//5 31//5 33//5
f 6//4 12//4 11//4 5//4
f 17//4 2//4 8//4 21//4
f 21//4 8//4 7//4 23//4
f 8//4 10//4 9//4 7//4
f 5//4 22//4 24//4 6//4
f 22//4 21//4 23//4 24//4
f 3//4 18//4 22//4 5//4
f 18//4 17//4 21//4 22//4
f 18//4 20//4 19//4 17//4
f 6//4 24//4 14//4 4//4
f 24//4 23//4 13//4 14//4
f 18//5 3//5 30//5 29//5
f 14//4 13//4 15//4 16//4
f 41//2 34//2 52//2 55//2
f 26//2 27//2 47//2 46//2
f 25//3 26//3 46//3 45//3
f 1//1 7//1 38//1 34//1
f 20//3 18//3 29//3 36//3
f 17//1 19//1 44//1 43//1
f 2//5 17//5 43//5 32//5
f 6//3 4//3 26//3 25//3
f 14//3 16//3 28//3 27//3
f 4//2 14//2 27//2 26//2
f 12//2 6//2 25//2 35//2
f 15//1 13//1 41//1 42//1
f 5//5 11//5 40//5 37//5
f 29//5 30//5 49//5 48//5
f 32//5 43//5 56//5 51//5
f 30//3 37//3 53//3 49//3
f 34//1 38//1 54//1 52//1
f 31//1 32//1 51//1 50//1
f 48//5 56//5 43//5 29//5
f 29//6 43//6 44//6 36//6
f 53//3 37//3 25//3 45//3
f 25//6 37//6 40//6 35//6
f 27//2 41//2 55//2 47//2
f 28//6 42//6 41//6 27//6
f 31//1 50//1 54//1 38//1
f 31//6 38//6 39//6 33//6
